<?xml version="1.0" encoding="utf-8"?>
<!-- Generator: Adobe Illustrator 20.0.0, SVG Export Plug-In . SVG Version: 6.00 Build 0)  -->
<svg version="1.1"
	 id="svg2" inkscape:version="0.48.5 r10040" sodipodi:docname="glasses.svg" xmlns:cc="http://creativecommons.org/ns#" xmlns:dc="http://purl.org/dc/elements/1.1/" xmlns:inkscape="http://www.inkscape.org/namespaces/inkscape" xmlns:rdf="http://www.w3.org/1999/02/22-rdf-syntax-ns#" xmlns:sodipodi="http://sodipodi.sourceforge.net/DTD/sodipodi-0.dtd" xmlns:svg="http://www.w3.org/2000/svg"
	 xmlns="http://www.w3.org/2000/svg" xmlns:xlink="http://www.w3.org/1999/xlink" x="0px" y="0px" viewBox="0 0 1488.2 1052.4"
	 style="enable-background:new 0 0 1488.2 1052.4;" xml:space="preserve">
<style type="text/css">
	.st0{fill:#FFFFFF;stroke:#000000;}
	.st1{fill:none;stroke:#0000FF;stroke-width:3.142148e-02;}
	.st2{fill:none;stroke:#FF0000;stroke-width:5.402473e-02;}
	.st3{fill:none;stroke:#FF0000;stroke-width:6.613867e-02;}
	.st4{fill:none;stroke:#FF0000;stroke-width:6.600000e-02;}
	.st5{fill:none;stroke:#FF0000;stroke-width:5.398875e-02;}
	.st6{fill:none;stroke:#FF0000;stroke-width:6.479657e-02;}
	.st7{fill:none;stroke:#FF0000;stroke-width:9.681491e-02;}
	.st8{fill:none;stroke:#002BFF;stroke-width:8.209074e-02;stroke-dasharray:0.9851,0.9851;}
	.st9{fill:none;stroke:#FF0000;stroke-width:0.126;}
	.st10{fill:none;stroke:#000000;stroke-width:6.600000e-02;}
</style>
<path class="st0" d="M1214.7,842.7L1107.1,596L1007,476c-1.1,0.9-2.6,1.5-4.2,1.5c-3.6,0-6.6-3-6.6-6.6c0-3.6,3-6.6,6.6-6.6
	c0,0,0.1,0,0.1,0l-0.1-276.4H464.4l0,275.7c4.2,0,7.6,3.4,7.6,7.6c0,4.2-3.4,7.6-7.6,7.6c-1.9,0-3.5-0.7-4.9-1.8l-99.2,119
	L252.6,842.7L356.4,888l108-246.8v113.3h539.2l-0.3-113.2L1110.9,888L1214.7,842.7z"/>
<sodipodi:namedview  bordercolor="#666666" borderopacity="1.0" id="base" inkscape:current-layer="layer1" inkscape:cx="543.28645" inkscape:cy="670.57552" inkscape:document-units="px" inkscape:pageopacity="0.0" inkscape:pageshadow="2" inkscape:window-height="798" inkscape:window-maximized="1" inkscape:window-width="1440" inkscape:window-x="0" inkscape:window-y="0" inkscape:zoom="2.4668254" pagecolor="#ffffff" showgrid="false">
	</sodipodi:namedview>
<rect id="rect2987" x="464.4" y="187.8" class="st1" width="538.5" height="566.8"/>
<rect id="rect3038" x="464.4" y="641.2" class="st2" width="539.2" height="113.3"/>
<rect id="rect3042" x="464.4" y="471.2" class="st3" width="538.4" height="170"/>
<rect id="rect3044" x="464.4" y="301.2" class="st4" width="538.5" height="170"/>
<rect id="rect3046" x="464.4" y="187.8" class="st5" width="538.5" height="113.3"/>
<polygon id="rect3057" class="st6" points="360.3,596 464.4,641.2 356.4,888 252.6,842.7 "/>
<rect id="rect3835" x="1052.4" y="607.4" transform="matrix(0.9165 -0.3999 0.3999 0.9165 -204.1992 505.4634)" class="st6" width="113.2" height="269.2"/>
<rect id="rect3852" x="479.3" y="202" class="st7" width="509.7" height="92"/>
<rect id="rect3854" x="472" y="194.5" class="st8" width="524.3" height="552.6"/>
<rect id="rect3856" x="478.5" y="647.1" class="st7" width="509.7" height="92"/>
<rect id="rect3858" x="479.7" y="308.5" class="st9" width="509.7" height="155.8"/>
<rect id="rect3860" x="479.7" y="478.5" class="st9" width="509.7" height="155.8"/>
<polygon class="st10" points="464.4,641.2 360.3,596 464.4,471.2 "/>
<circle class="st0" cx="1236.7" cy="324.4" r="6.6"/>
</svg>
